<svg xmlns="http://www.w3.org/2000/svg" viewBox="0 0 380 232"><defs><marker id="ag" viewBox="0 0 10 10" refX="8" refY="5" markerWidth="6" markerHeight="6" orient="auto-start-reverse"><path d="M2 1L8 5L2 9" fill="none" stroke="#5F5E5A" stroke-width="1.5" stroke-linecap="round" stroke-linejoin="round"/></marker><marker id="at" viewBox="0 0 10 10" refX="8" refY="5" markerWidth="6" markerHeight="6" orient="auto-start-reverse"><path d="M2 1L8 5L2 9" fill="none" stroke="#0F6E56" stroke-width="1.5" stroke-linecap="round" stroke-linejoin="round"/></marker><marker id="ac" viewBox="0 0 10 10" refX="8" refY="5" markerWidth="6" markerHeight="6" orient="auto-start-reverse"><path d="M2 1L8 5L2 9" fill="none" stroke="#993C1D" stroke-width="1.5" stroke-linecap="round" stroke-linejoin="round"/></marker></defs><rect width="380" height="232" fill="#FFFFFF"/><text x="8" y="18" font-family="Helvetica,Arial,sans-serif" font-size="12" fill="#2C2C2A">SPCX 07-10 实际走势(5分钟) · 前收 152.16 低开 149.62(-1.7%),收 145.42(-4.4%)</text><line x1="8" y1="95.5" x2="372" y2="95.5" stroke="#534AB7" stroke-width="1.4" stroke-dasharray="5 4"/><text x="12" y="91" font-family="Helvetica,Arial,sans-serif" font-size="12" fill="#534AB7">150.00 加速带起点(全天没再碰到)</text><line x1="8" y1="51.7" x2="372" y2="51.7" stroke="#888780" stroke-width="1.4" stroke-dasharray="2 3"/><text x="12" y="47" font-family="Helvetica,Arial,sans-serif" font-size="12" fill="#888780">前收 152.16</text><polyline fill="none" stroke="#2C2C2A" stroke-width="1.8" points="8.0,103.2 12.7,113.3 17.5,112.7 22.2,105.6 26.9,123.9 31.6,132.0 36.4,141.3 41.1,121.8 45.8,133.6 50.5,141.9 55.3,142.5 60.0,139.3 64.7,142.3 69.5,132.8 74.2,137.4 78.9,133.8 83.6,140.3 88.4,137.4 93.1,139.1 97.8,131.4 102.5,137.4 107.3,129.1 112.0,117.4 116.7,105.8 121.5,113.1 126.2,122.6 130.9,132.6 135.6,127.7 140.4,126.7 145.1,120.4 149.8,123.0 154.5,117.4 159.3,139.1 164.0,130.1 168.7,126.1 173.5,127.3 178.2,128.3 182.9,121.8 187.6,124.3 192.4,119.8 197.1,124.9 201.8,120.2 206.5,122.0 211.3,123.6 216.0,122.2 220.7,123.0 225.5,120.8 230.2,124.5 234.9,124.7 239.6,123.2 244.4,121.2 249.1,121.0 253.8,120.6 258.5,117.6 263.3,116.8 268.0,114.7 272.7,119.4 277.5,123.0 282.2,119.4 286.9,122.6 291.6,119.4 296.4,119.2 301.1,120.0 305.8,125.3 310.5,124.7 315.3,125.5 320.0,127.1 324.7,130.3 329.5,131.4 334.2,133.4 338.9,132.6 343.6,133.6 348.4,139.1 353.1,142.7 357.8,146.8 362.5,146.2 367.3,166.8 372.0,188.3"/><text x="250" y="208" font-family="Helvetica,Arial,sans-serif" font-size="12" fill="#5F5E5A">收 145.42</text><text x="8" y="226" font-family="Helvetica,Arial,sans-serif" font-size="12" fill="#888780">9:30</text><text x="346" y="226" font-family="Helvetica,Arial,sans-serif" font-size="12" fill="#888780">16:00</text></svg>