<svg xmlns="http://www.w3.org/2000/svg" viewBox="0 0 380 232"><defs><marker id="ag" viewBox="0 0 10 10" refX="8" refY="5" markerWidth="6" markerHeight="6" orient="auto-start-reverse"><path d="M2 1L8 5L2 9" fill="none" stroke="#5F5E5A" stroke-width="1.5" stroke-linecap="round" stroke-linejoin="round"/></marker><marker id="at" viewBox="0 0 10 10" refX="8" refY="5" markerWidth="6" markerHeight="6" orient="auto-start-reverse"><path d="M2 1L8 5L2 9" fill="none" stroke="#0F6E56" stroke-width="1.5" stroke-linecap="round" stroke-linejoin="round"/></marker><marker id="ac" viewBox="0 0 10 10" refX="8" refY="5" markerWidth="6" markerHeight="6" orient="auto-start-reverse"><path d="M2 1L8 5L2 9" fill="none" stroke="#993C1D" stroke-width="1.5" stroke-linecap="round" stroke-linejoin="round"/></marker></defs><rect width="380" height="232" fill="#FFFFFF"/><text x="8" y="18" font-family="Helvetica,Arial,sans-serif" font-size="12" fill="#2C2C2A">RKLB 07-10 实际走势(5分钟) · 前收 82.55 低开 81.39(-1.4%),盘中刺破 80 至 79.06 后拉回收 81.05</text><line x1="8" y1="162.0" x2="372" y2="162.0" stroke="#0F6E56" stroke-width="1.4" stroke-dasharray="5 4"/><text x="12" y="158" font-family="Helvetica,Arial,sans-serif" font-size="12" fill="#0F6E56">80.00 地板(盘中被刺破后拉回)</text><line x1="8" y1="51.7" x2="372" y2="51.7" stroke="#888780" stroke-width="1.4" stroke-dasharray="2 3"/><text x="12" y="47" font-family="Helvetica,Arial,sans-serif" font-size="12" fill="#888780">前收 82.55</text><polyline fill="none" stroke="#2C2C2A" stroke-width="1.8" points="8.0,101.8 12.7,110.9 17.5,126.5 22.2,100.5 26.9,139.0 31.6,147.2 36.4,188.3 41.1,153.3 45.8,151.6 50.5,161.5 55.3,164.5 60.0,147.7 64.7,151.6 69.5,158.9 74.2,151.1 78.9,151.1 83.6,163.2 88.4,165.4 93.1,170.2 97.8,151.6 102.5,158.1 107.3,155.9 112.0,145.1 116.7,131.7 121.5,138.6 126.2,154.6 130.9,158.1 135.6,155.9 140.4,149.4 145.1,152.9 149.8,148.5 154.5,145.1 159.3,139.0 164.0,136.4 168.7,132.5 173.5,126.1 178.2,110.1 182.9,105.3 187.6,106.2 192.4,92.8 197.1,81.9 201.8,89.3 206.5,82.8 211.3,97.5 216.0,91.0 220.7,102.3 225.5,95.8 230.2,106.2 234.9,97.5 239.6,86.3 244.4,80.2 249.1,81.1 253.8,88.0 258.5,89.3 263.3,91.9 268.0,86.3 272.7,85.8 277.5,97.5 282.2,96.2 286.9,101.4 291.6,90.6 296.4,89.7 301.1,90.6 305.8,101.8 310.5,101.4 315.3,101.4 320.0,93.2 324.7,92.3 329.5,95.3 334.2,115.2 338.9,107.9 343.6,112.6 348.4,107.9 353.1,105.3 357.8,109.2 362.5,101.8 367.3,117.8 372.0,116.5"/><text x="8" y="226" font-family="Helvetica,Arial,sans-serif" font-size="12" fill="#888780">9:30</text><text x="346" y="226" font-family="Helvetica,Arial,sans-serif" font-size="12" fill="#888780">16:00</text></svg>