<svg xmlns="http://www.w3.org/2000/svg" viewBox="0 0 680 340"><defs><marker id="ag" viewBox="0 0 10 10" refX="8" refY="5" markerWidth="6" markerHeight="6" orient="auto-start-reverse"><path d="M2 1L8 5L2 9" fill="none" stroke="#5F5E5A" stroke-width="1.5" stroke-linecap="round" stroke-linejoin="round"/></marker><marker id="at" viewBox="0 0 10 10" refX="8" refY="5" markerWidth="6" markerHeight="6" orient="auto-start-reverse"><path d="M2 1L8 5L2 9" fill="none" stroke="#0F6E56" stroke-width="1.5" stroke-linecap="round" stroke-linejoin="round"/></marker><marker id="ac" viewBox="0 0 10 10" refX="8" refY="5" markerWidth="6" markerHeight="6" orient="auto-start-reverse"><path d="M2 1L8 5L2 9" fill="none" stroke="#993C1D" stroke-width="1.5" stroke-linecap="round" stroke-linejoin="round"/></marker></defs><rect width="680" height="340" fill="#FFFFFF"/><rect x="24" y="16" width="304" height="286" rx="8" fill="#E1F5EE" stroke="#1D9E75" stroke-width="1.5"/><text x="176" y="46" text-anchor="middle" font-family="Helvetica,Arial,sans-serif" font-size="14" font-weight="500" fill="#04342C">正 Gamma · 弹簧</text><text x="176" y="68" text-anchor="middle" font-family="Helvetica,Arial,sans-serif" font-size="12" fill="#085041">涨了就卖,跌了就买</text><line x1="60" y1="150" x2="292" y2="150" stroke="#888780" stroke-width="1" stroke-dasharray="3 3"/><circle cx="120" cy="150" r="9" fill="#2C2C2A"/><line x1="132" y1="146" x2="200" y2="112" stroke="#5F5E5A" stroke-width="1.5" marker-end="url(#ag)"/><text x="196" y="100" text-anchor="middle" font-family="Helvetica,Arial,sans-serif" font-size="12" fill="#5F5E5A">价格上冲</text><line x1="210" y1="122" x2="150" y2="146" stroke="#0F6E56" stroke-width="2.5" marker-end="url(#at)"/><text x="216" y="140" font-family="Helvetica,Arial,sans-serif" font-size="12" fill="#0F6E56">dealer 卖出压回</text><line x1="132" y1="154" x2="200" y2="188" stroke="#5F5E5A" stroke-width="1.5" marker-end="url(#ag)"/><text x="196" y="206" text-anchor="middle" font-family="Helvetica,Arial,sans-serif" font-size="12" fill="#5F5E5A">价格下杀</text><line x1="210" y1="178" x2="150" y2="154" stroke="#0F6E56" stroke-width="2.5" marker-end="url(#at)"/><text x="216" y="168" font-family="Helvetica,Arial,sans-serif" font-size="12" fill="#0F6E56">dealer 买入托住</text><text x="176" y="252" text-anchor="middle" font-family="Helvetica,Arial,sans-serif" font-size="14" font-weight="500" fill="#04342C">波动被吸收</text><text x="176" y="274" text-anchor="middle" font-family="Helvetica,Arial,sans-serif" font-size="12" fill="#085041">磁铁 · 减速带 · 钉住</text><rect x="352" y="16" width="304" height="286" rx="8" fill="#FAECE7" stroke="#D85A30" stroke-width="1.5"/><text x="504" y="46" text-anchor="middle" font-family="Helvetica,Arial,sans-serif" font-size="14" font-weight="500" fill="#4A1B0C">负 Gamma · 雪球</text><text x="504" y="68" text-anchor="middle" font-family="Helvetica,Arial,sans-serif" font-size="12" fill="#712B13">涨了还买,跌了还卖</text><line x1="388" y1="150" x2="620" y2="150" stroke="#888780" stroke-width="1" stroke-dasharray="3 3"/><circle cx="448" cy="150" r="9" fill="#2C2C2A"/><line x1="460" y1="146" x2="528" y2="112" stroke="#5F5E5A" stroke-width="1.5" marker-end="url(#ag)"/><text x="524" y="100" text-anchor="middle" font-family="Helvetica,Arial,sans-serif" font-size="12" fill="#5F5E5A">价格上冲</text><line x1="536" y1="108" x2="600" y2="76" stroke="#993C1D" stroke-width="2.5" marker-end="url(#ac)"/><text x="556" y="130" font-family="Helvetica,Arial,sans-serif" font-size="12" fill="#993C1D">dealer 追买</text><line x1="460" y1="154" x2="528" y2="188" stroke="#5F5E5A" stroke-width="1.5" marker-end="url(#ag)"/><text x="524" y="206" text-anchor="middle" font-family="Helvetica,Arial,sans-serif" font-size="12" fill="#5F5E5A">价格下杀</text><line x1="536" y1="192" x2="600" y2="224" stroke="#993C1D" stroke-width="2.5" marker-end="url(#ac)"/><text x="556" y="178" font-family="Helvetica,Arial,sans-serif" font-size="12" fill="#993C1D">dealer 追卖</text><text x="504" y="252" text-anchor="middle" font-family="Helvetica,Arial,sans-serif" font-size="14" font-weight="500" fill="#4A1B0C">波动被放大</text><text x="504" y="274" text-anchor="middle" font-family="Helvetica,Arial,sans-serif" font-size="12" fill="#712B13">挤压 · 瀑布 · 过冲</text></svg>