<svg xmlns="http://www.w3.org/2000/svg" viewBox="0 0 680 300"><defs><marker id="ag" viewBox="0 0 10 10" refX="8" refY="5" markerWidth="6" markerHeight="6" orient="auto-start-reverse"><path d="M2 1L8 5L2 9" fill="none" stroke="#5F5E5A" stroke-width="1.5" stroke-linecap="round" stroke-linejoin="round"/></marker><marker id="at" viewBox="0 0 10 10" refX="8" refY="5" markerWidth="6" markerHeight="6" orient="auto-start-reverse"><path d="M2 1L8 5L2 9" fill="none" stroke="#0F6E56" stroke-width="1.5" stroke-linecap="round" stroke-linejoin="round"/></marker><marker id="ac" viewBox="0 0 10 10" refX="8" refY="5" markerWidth="6" markerHeight="6" orient="auto-start-reverse"><path d="M2 1L8 5L2 9" fill="none" stroke="#993C1D" stroke-width="1.5" stroke-linecap="round" stroke-linejoin="round"/></marker></defs><rect width="680" height="300" fill="#FFFFFF"/><line x1="60" y1="240" x2="640" y2="240" stroke="#888780" stroke-width="1.5" marker-end="url(#ag)"/><line x1="60" y1="240" x2="60" y2="30" stroke="#888780" stroke-width="1.5" marker-end="url(#ag)"/><text x="640" y="262" text-anchor="end" font-family="Helvetica,Arial,sans-serif" font-size="12" fill="#5F5E5A">剩余到期时间</text><text x="40" y="30" text-anchor="end" font-family="Helvetica,Arial,sans-serif" font-size="12" fill="#5F5E5A">Gamma</text><rect x="65" y="30" width="90" height="210" fill="#E6F1FB" opacity="0.6"/><rect x="155" y="30" width="110" height="210" fill="#B5D4F4" opacity="0.45"/><rect x="265" y="30" width="355" height="210" fill="#E1F5EE" opacity="0.5"/><path d="M 80 50 Q 140 60 200 100 T 320 165 T 460 205 T 620 225" fill="none" stroke="#185FA5" stroke-width="2.5"/><text x="110" y="255" text-anchor="middle" font-family="Helvetica,Arial,sans-serif" font-size="14" font-weight="500" fill="#2C2C2A">0DTE</text><text x="110" y="272" text-anchor="middle" font-family="Helvetica,Arial,sans-serif" font-size="12" fill="#5F5E5A">仅指数/超大盘</text><text x="210" y="255" text-anchor="middle" font-family="Helvetica,Arial,sans-serif" font-size="14" font-weight="500" fill="#2C2C2A">1DTE</text><text x="210" y="272" text-anchor="middle" font-family="Helvetica,Arial,sans-serif" font-size="12" fill="#5F5E5A">同上</text><text x="440" y="255" text-anchor="middle" font-family="Helvetica,Arial,sans-serif" font-size="14" font-weight="500" fill="#2C2C2A">Weekly</text><text x="440" y="272" text-anchor="middle" font-family="Helvetica,Arial,sans-serif" font-size="12" fill="#5F5E5A">多数个股仅此一档</text></svg>