<svg xmlns="http://www.w3.org/2000/svg" viewBox="0 0 680 360"><defs><marker id="ag" viewBox="0 0 10 10" refX="8" refY="5" markerWidth="6" markerHeight="6" orient="auto-start-reverse"><path d="M2 1L8 5L2 9" fill="none" stroke="#5F5E5A" stroke-width="1.5" stroke-linecap="round" stroke-linejoin="round"/></marker><marker id="at" viewBox="0 0 10 10" refX="8" refY="5" markerWidth="6" markerHeight="6" orient="auto-start-reverse"><path d="M2 1L8 5L2 9" fill="none" stroke="#0F6E56" stroke-width="1.5" stroke-linecap="round" stroke-linejoin="round"/></marker><marker id="ac" viewBox="0 0 10 10" refX="8" refY="5" markerWidth="6" markerHeight="6" orient="auto-start-reverse"><path d="M2 1L8 5L2 9" fill="none" stroke="#993C1D" stroke-width="1.5" stroke-linecap="round" stroke-linejoin="round"/></marker></defs><rect width="680" height="360" fill="#FFFFFF"/><rect x="16" y="16" width="204" height="150" rx="8" fill="#FFFFFF" stroke="#D3D1C7"/><text x="118" y="40" text-anchor="middle" font-family="Helvetica,Arial,sans-serif" font-size="14" font-weight="500" fill="#2C2C2A">① 上负下正 · 挤压待发</text><rect x="70" y="54" width="96" height="26" rx="6" fill="#EEEDFE" stroke="#534AB7" stroke-width="1.5"/><text x="118" y="72" text-anchor="middle" font-family="Helvetica,Arial,sans-serif" font-size="14" font-weight="500" fill="#26215C">&#8722; 触发器</text><line x1="50" y1="94" x2="186" y2="94" stroke="#2C2C2A" stroke-width="1.2" stroke-dasharray="4 3"/><rect x="70" y="104" width="96" height="26" rx="6" fill="#E1F5EE" stroke="#1D9E75" stroke-width="1.5"/><text x="118" y="122" text-anchor="middle" font-family="Helvetica,Arial,sans-serif" font-size="14" font-weight="500" fill="#04342C">+ 托底</text><text x="118" y="152" text-anchor="middle" font-family="Helvetica,Arial,sans-serif" font-size="12" fill="#5F5E5A">突破即加速(BMNR型)</text><rect x="238" y="16" width="204" height="150" rx="8" fill="#FFFFFF" stroke="#D3D1C7"/><text x="340" y="40" text-anchor="middle" font-family="Helvetica,Arial,sans-serif" font-size="14" font-weight="500" fill="#2C2C2A">② 上正下负 · 镜像</text><rect x="292" y="54" width="96" height="26" rx="6" fill="#E1F5EE" stroke="#1D9E75" stroke-width="1.5"/><text x="340" y="72" text-anchor="middle" font-family="Helvetica,Arial,sans-serif" font-size="14" font-weight="500" fill="#04342C">+ 减速带</text><line x1="272" y1="94" x2="408" y2="94" stroke="#2C2C2A" stroke-width="1.2" stroke-dasharray="4 3"/><rect x="292" y="104" width="96" height="26" rx="6" fill="#EEEDFE" stroke="#534AB7" stroke-width="1.5"/><text x="340" y="122" text-anchor="middle" font-family="Helvetica,Arial,sans-serif" font-size="14" font-weight="500" fill="#26215C">&#8722; 陷阱</text><text x="340" y="152" text-anchor="middle" font-family="Helvetica,Arial,sans-serif" font-size="12" fill="#5F5E5A">跌破即加速(HOOD型)</text><rect x="460" y="16" width="204" height="150" rx="8" fill="#FFFFFF" stroke="#D3D1C7"/><text x="562" y="40" text-anchor="middle" font-family="Helvetica,Arial,sans-serif" font-size="14" font-weight="500" fill="#2C2C2A">③ 坐在负值格上</text><rect x="514" y="66" width="96" height="44" rx="6" fill="#EEEDFE" stroke="#534AB7" stroke-width="1.5"/><text x="562" y="93" text-anchor="middle" font-family="Helvetica,Arial,sans-serif" font-size="14" font-weight="500" fill="#26215C">&#8722; 极端格</text><line x1="494" y1="88" x2="630" y2="88" stroke="#2C2C2A" stroke-width="1.2" stroke-dasharray="4 3"/><text x="562" y="132" text-anchor="middle" font-family="Helvetica,Arial,sans-serif" font-size="12" fill="#5F5E5A">两边都不稳</text><text x="562" y="152" text-anchor="middle" font-family="Helvetica,Arial,sans-serif" font-size="12" fill="#5F5E5A">别选边</text><rect x="16" y="192" width="204" height="150" rx="8" fill="#FFFFFF" stroke="#D3D1C7"/><text x="118" y="216" text-anchor="middle" font-family="Helvetica,Arial,sans-serif" font-size="14" font-weight="500" fill="#2C2C2A">④ 干净钉位</text><line x1="50" y1="262" x2="186" y2="262" stroke="#2C2C2A" stroke-width="1.2" stroke-dasharray="4 3"/><rect x="70" y="270" width="96" height="30" rx="6" fill="#E1F5EE" stroke="#1D9E75" stroke-width="1.5"/><text x="118" y="290" text-anchor="middle" font-family="Helvetica,Arial,sans-serif" font-size="14" font-weight="500" fill="#04342C">+ 孤立大格</text><text x="118" y="326" text-anchor="middle" font-family="Helvetica,Arial,sans-serif" font-size="12" fill="#5F5E5A">窄幅震荡,等催化剂</text><rect x="238" y="192" width="204" height="150" rx="8" fill="#FFFFFF" stroke="#D3D1C7"/><text x="340" y="216" text-anchor="middle" font-family="Helvetica,Arial,sans-serif" font-size="14" font-weight="500" fill="#2C2C2A">⑤ 混乱量级小</text><rect x="272" y="230" width="50" height="18" rx="3" fill="#F7F6F2" stroke="#B4B2A9"/><rect x="350" y="252" width="42" height="18" rx="3" fill="#F7F6F2" stroke="#B4B2A9"/><line x1="272" y1="284" x2="408" y2="284" stroke="#2C2C2A" stroke-width="1.2" stroke-dasharray="4 3"/><rect x="300" y="294" width="46" height="18" rx="3" fill="#F7F6F2" stroke="#B4B2A9"/><text x="340" y="332" text-anchor="middle" font-family="Helvetica,Arial,sans-serif" font-size="12" fill="#5F5E5A">"一般" = 无序 = 不做</text><rect x="460" y="192" width="204" height="150" rx="8" fill="#FFFFFF" stroke="#D3D1C7"/><text x="562" y="216" text-anchor="middle" font-family="Helvetica,Arial,sans-serif" font-size="14" font-weight="500" fill="#2C2C2A">⑥ 跨日结构反转</text><rect x="482" y="240" width="70" height="26" rx="6" fill="#EEEDFE" stroke="#534AB7" stroke-width="1.5"/><text x="517" y="258" text-anchor="middle" font-family="Helvetica,Arial,sans-serif" font-size="14" font-weight="500" fill="#26215C">昨日 &#8722;</text><rect x="572" y="240" width="70" height="26" rx="6" fill="#E1F5EE" stroke="#1D9E75" stroke-width="1.5"/><text x="607" y="258" text-anchor="middle" font-family="Helvetica,Arial,sans-serif" font-size="14" font-weight="500" fill="#04342C">今日 +</text><text x="562" y="296" text-anchor="middle" font-family="Helvetica,Arial,sans-serif" font-size="12" fill="#5F5E5A">近端结构保质期 1-2 天</text><text x="562" y="316" text-anchor="middle" font-family="Helvetica,Arial,sans-serif" font-size="12" fill="#5F5E5A">昨天的结论今天作废是常态</text></svg>