<svg xmlns="http://www.w3.org/2000/svg" viewBox="0 0 380 232"><defs><marker id="ag" viewBox="0 0 10 10" refX="8" refY="5" markerWidth="6" markerHeight="6" orient="auto-start-reverse"><path d="M2 1L8 5L2 9" fill="none" stroke="#5F5E5A" stroke-width="1.5" stroke-linecap="round" stroke-linejoin="round"/></marker><marker id="at" viewBox="0 0 10 10" refX="8" refY="5" markerWidth="6" markerHeight="6" orient="auto-start-reverse"><path d="M2 1L8 5L2 9" fill="none" stroke="#0F6E56" stroke-width="1.5" stroke-linecap="round" stroke-linejoin="round"/></marker><marker id="ac" viewBox="0 0 10 10" refX="8" refY="5" markerWidth="6" markerHeight="6" orient="auto-start-reverse"><path d="M2 1L8 5L2 9" fill="none" stroke="#993C1D" stroke-width="1.5" stroke-linecap="round" stroke-linejoin="round"/></marker></defs><rect width="380" height="232" fill="#FFFFFF"/><text x="8" y="18" font-family="Helvetica,Arial,sans-serif" font-size="12" fill="#2C2C2A">BMNR 07-10 实际走势(5分钟) · 前收 14.69 跳空开 15.34(+4.4%)</text><line x1="8" y1="92.8" x2="372" y2="92.8" stroke="#534AB7" stroke-width="1.4" stroke-dasharray="5 4"/><text x="12" y="88" font-family="Helvetica,Arial,sans-serif" font-size="12" fill="#534AB7">15.00 负天花板</text><line x1="8" y1="188.3" x2="372" y2="188.3" stroke="#0F6E56" stroke-width="1.4" stroke-dasharray="5 4"/><text x="12" y="183" font-family="Helvetica,Arial,sans-serif" font-size="12" fill="#0F6E56">14.00 正地板</text><line x1="8" y1="122.4" x2="372" y2="122.4" stroke="#888780" stroke-width="1.4" stroke-dasharray="2 3"/><text x="12" y="118" font-family="Helvetica,Arial,sans-serif" font-size="12" fill="#888780">前收 14.69</text><polyline fill="none" stroke="#2C2C2A" stroke-width="1.8" points="8.0,60.3 12.7,62.2 17.5,66.0 22.2,51.7 26.9,63.1 31.6,62.2 36.4,65.0 41.1,54.5 45.8,59.3 50.5,69.8 55.3,67.9 60.0,67.0 64.7,79.4 69.5,77.5 74.2,76.5 78.9,78.4 83.6,85.1 88.4,90.9 93.1,93.7 97.8,90.9 102.5,94.7 107.3,88.9 112.0,79.4 116.7,74.6 121.5,75.6 126.2,83.2 130.9,82.2 135.6,79.4 140.4,79.4 145.1,84.2 149.8,87.0 154.5,85.1 159.3,78.4 164.0,73.6 168.7,74.6 173.5,77.5 178.2,73.6 182.9,78.4 187.6,81.3 192.4,74.6 197.1,67.0 201.8,65.0 206.5,64.1 211.3,74.6 216.0,82.2 220.7,89.9 225.5,81.3 230.2,83.2 234.9,86.1 239.6,84.2 244.4,83.2 249.1,83.2 253.8,87.0 258.5,91.8 263.3,83.2 268.0,79.4 272.7,84.2 277.5,86.1 282.2,82.2 286.9,81.3 291.6,74.6 296.4,79.4 301.1,80.3 305.8,86.1 310.5,89.9 315.3,90.9 320.0,89.9 324.7,87.0 329.5,88.0 334.2,91.8 338.9,91.8 343.6,95.6 348.4,90.9 353.1,86.1 357.8,84.2 362.5,86.1 367.3,87.0 372.0,96.6"/><text x="22" y="45" font-family="Helvetica,Arial,sans-serif" font-size="12" fill="#5F5E5A">高点 15.54</text><text x="8" y="226" font-family="Helvetica,Arial,sans-serif" font-size="12" fill="#888780">9:30</text><text x="346" y="226" font-family="Helvetica,Arial,sans-serif" font-size="12" fill="#888780">16:00</text></svg>